<svg width="24" height="24" viewBox="0 0 24 24" fill="none" xmlns="http://www.w3.org/2000/svg">
<path d="M18.667 5.5H16.5V4.5C16.5 4.2235 16.2765 4 16 4C15.7235 4 15.5 4.2235 15.5 4.5V5.5H12.5V4.5C12.5 4.2235 12.276 4 12 4C11.724 4 11.5 4.2235 11.5 4.5V5.5H8.5V4.5C8.5 4.2235 8.276 4 8 4C7.724 4 7.5 4.2235 7.5 4.5V5.5H5.3335C4.597 5.5 4 6.0965 4 6.833V18.6665C4 19.403 4.597 20 5.3335 20H18.667C19.4035 20 20 19.403 20 18.6665V6.833C20 6.0965 19.4035 5.5 18.667 5.5ZM19 18.6665C19 18.8505 18.8505 19 18.667 19H5.3335C5.1495 19 5 18.8505 5 18.6665V6.833C5 6.6495 5.1495 6.5 5.3335 6.5H7.5V7.5C7.5 7.7765 7.724 8 8 8C8.276 8 8.5 7.7765 8.5 7.5V6.5H11.5V7.5C11.5 7.7765 11.724 8 12 8C12.276 8 12.5 7.7765 12.5 7.5V6.5H15.5V7.5C15.5 7.7765 15.7235 8 16 8C16.2765 8 16.5 7.7765 16.5 7.5V6.5H18.667C18.8505 6.5 19 6.6495 19 6.833V18.6665Z" fill="#979797"/>
<path d="M9.5 10H7.5V11.5H9.5V10Z" fill="#979797"/>
<path d="M9.5 12.5H7.5V14H9.5V12.5Z" fill="#979797"/>
<path d="M9.5 15H7.5V16.5H9.5V15Z" fill="#979797"/>
<path d="M13 15H11V16.5H13V15Z" fill="#979797"/>
<path d="M13 12.5H11V14H13V12.5Z" fill="#979797"/>
<path d="M13 10H11V11.5H13V10Z" fill="#979797"/>
<path d="M16.5 15H14.5V16.5H16.5V15Z" fill="#979797"/>
<path d="M16.5 12.5H14.5V14H16.5V12.5Z" fill="#979797"/>
<path d="M16.5 10H14.5V11.5H16.5V10Z" fill="#979797"/>
</svg>
